Coordinates
version=1
nRows=13
nColumns=38
inDegrees=no

Units are S.I. units (second, meters, Newtons, ...)
If the header above contains a line with 'inDegrees', this indicates whether rotational values are in degrees (yes) or radians (no).

endheader
time	pelvis_tilt	pelvis_list	pelvis_rotation	pelvis_tx	pelvis_ty	pelvis_tz	hip_flexion_r	hip_adduction_r	hip_rotation_r	knee_angle_r	ankle_angle_r	subtalar_angle_r	mtp_angle_r	hip_flexion_l	hip_adduction_l	hip_rotation_l	knee_angle_l	ankle_angle_l	subtalar_angle_l	mtp_angle_l	lumbar_extension	lumbar_bending	lumbar_rotation	arm_flex_r	arm_add_r	arm_rot_r	elbow_flex_r	pro_sup_r	wrist_flex_r	wrist_dev_r	arm_flex_l	arm_add_l	arm_rot_l	elbow_flex_l	pro_sup_l	wrist_flex_l	wrist_dev_l
0.59	0.0943419	0.00120566	0.0920056	0.18499	1.00331	-0.229884	0.0215172	0.0319684	-0.216352	0.318748	0.349405	0	0	0.303848	-0.0791827	-0.0346177	1.2306	0.233118	0	0	-0.191071	0.0357068	-0.0491157	0.00196784	-0.170538	-0.233152	0.753721	0.242408	0	0	-0.0113907	-0.208619	-0.0079099	0.840753	0.924632	0	0
0.6	0.0937038	0.00741289	0.0877555	0.196758	1.00453	-0.22922	-3.35905e-05	0.0278289	-0.212754	0.303292	0.350322	0	0	0.32284	-0.0697425	-0.0396007	1.20237	0.236341	0	0	-0.19073	0.0270095	-0.0431318	0.010355	-0.17149	-0.227568	0.761412	0.243107	0	0	-0.0246003	-0.212658	-0.0190762	0.841053	0.91657	0	0
0.61	0.0928796	0.0130519	0.0835291	0.208498	1.00539	-0.228587	-0.0210764	0.0240795	-0.208575	0.288185	0.352697	0	0	0.340779	-0.0606863	-0.0437856	1.17022	0.242118	0	0	-0.190672	0.0189745	-0.0373436	0.0181557	-0.172791	-0.223132	0.772017	0.231719	0	0	-0.038064	-0.216319	-0.0316739	0.84167	0.917615	0	0
0.62	0.0919382	0.018405	0.0795193	0.220103	1.00595	-0.22811	-0.0414802	0.0200347	-0.206124	0.273065	0.356672	0	0	0.35747	-0.0513944	-0.0466297	1.13407	0.249971	0	0	-0.190779	0.0115278	-0.032045	0.0258523	-0.174724	-0.218544	0.784294	0.209381	0	0	-0.0498989	-0.218567	-0.0477819	0.839682	0.928815	0	0
0.63	0.0908216	0.0227562	0.0756241	0.231618	1.0062	-0.227733	-0.0609178	0.0170031	-0.200672	0.259028	0.358593	0	0	0.372954	-0.0430364	-0.0483301	1.09391	0.25246	0	0	-0.190754	0.00542844	-0.0262062	0.0327472	-0.177212	-0.212364	0.798083	0.20948	0	0	-0.0598381	-0.220152	-0.0608904	0.836303	0.920806	0	0
0.64	0.0897774	0.0276397	0.0714695	0.243063	1.00617	-0.227483	-0.0799219	0.0126739	-0.196365	0.246245	0.362243	0	0	0.385838	-0.0336315	-0.0492231	1.0484	0.25608	0	0	-0.19114	-0.00108469	-0.0209001	0.0401022	-0.180078	-0.206998	0.813	0.196479	0	0	-0.0711004	-0.222002	-0.0718612	0.83467	0.922769	0	0
0.65	0.089081	0.0317546	0.0675607	0.254574	1.00587	-0.227333	-0.0994672	0.00890856	-0.193304	0.233452	0.367002	0	0	0.395919	-0.0245691	-0.0482317	0.998018	0.259955	0	0	-0.191936	-0.00666762	-0.0168011	0.0478706	-0.183414	-0.201364	0.828929	0.171887	0	0	-0.0842643	-0.223361	-0.084773	0.836662	0.933747	0	0
0.66	0.0880826	0.0336897	0.0636945	0.266068	1.00525	-0.227219	-0.118646	0.00775605	-0.186129	0.220452	0.369373	0	0	0.404693	-0.017894	-0.0455478	0.944153	0.261308	0	0	-0.192452	-0.00973894	-0.011424	0.0541413	-0.187236	-0.195752	0.845883	0.171561	0	0	-0.0953411	-0.22451	-0.0952177	0.83755	0.925611	0	0
0.67	0.0880395	0.0353945	0.0598566	0.277723	1.00447	-0.227151	-0.139053	0.0066779	-0.181	0.207688	0.373829	0	0	0.409439	-0.0111905	-0.0408107	0.884855	0.263334	0	0	-0.193931	-0.0124889	-0.00584326	0.0597834	-0.191098	-0.1914	0.863126	0.160113	0	0	-0.105401	-0.224993	-0.104817	0.835351	0.926795	0	0
0.68	0.088495	0.0372424	0.0547612	0.289441	1.00348	-0.227039	-0.160323	0.00500823	-0.177026	0.194217	0.380024	0	0	0.410432	-0.00463994	-0.0357652	0.819754	0.264753	0	0	-0.196037	-0.0154923	0.000263173	0.0657303	-0.195039	-0.187629	0.88114	0.140165	0	0	-0.116071	-0.224952	-0.114561	0.833394	0.938895	0	0
0.69	0.0876831	0.037293	0.0478476	0.300985	1.00206	-0.226819	-0.179828	0.00504372	-0.165418	0.180059	0.382815	0	0	0.411159	-0.000853409	-0.0309751	0.751503	0.265716	0	0	-0.197004	-0.0167917	0.00820321	0.0716409	-0.199237	-0.183644	0.899774	0.139482	0	0	-0.126011	-0.224375	-0.124068	0.832853	0.928742	0	0
0.7	0.0872449	0.0370152	0.0432273	0.312948	1.00045	-0.226726	-0.199644	0.0054597	-0.164257	0.167547	0.388707	0	0	0.408828	0.00303442	-0.0237168	0.679126	0.268029	0	0	-0.197638	-0.0177672	0.013423	0.0775897	-0.202586	-0.181908	0.917088	0.129129	0	0	-0.136745	-0.223159	-0.13574	0.831586	0.940559	0	0
0.71	0.0866365	0.0345205	0.0396541	0.325158	0.998565	-0.226633	-0.220432	0.00921554	-0.155569	0.152873	0.39074	0	0	0.405048	0.00419659	-0.0157684	0.60497	0.273707	0	0	-0.197591	-0.0162752	0.0193437	0.0818803	-0.205734	-0.181641	0.933692	0.128571	0	0	-0.145941	-0.222406	-0.143881	0.829749	0.930342	0	0
